<svg xmlns="http://www.w3.org/2000/svg" viewBox="0 0 430.82 270.22"><defs><style>.a{fill:#6a4974}.d{fill:#a74a9b}</style></defs><path class="a" d="M393.08 158l23.21 23.55s2 2.5 3.78.61c1.59-1.69.74-4.41.74-4.41l-11.7-60.16-9.73 17.17zM384.6 107.19l-35.53 49.17s-1.31 1.39-.68 2.69a3 3 0 0 0 3.43 1.42l25.27-3.16 5.3-25.94z"/><path fill="#be9ec7" d="M374.04 177.67l18.71-124.9 25.53-35.38 7.02 5.46 5.52 11.97v26.97l-45.06 115.77-11.72.11z"/><path class="a" d="M375.64 167.03l6.26-.8 6.99 3.28-3.13 8.05-11.72.11 1.6-10.64z"/><path fill="#c964a8" d="M418.28 58.81l-18.77 46.92-15.98 62.78 5.36 1 41.93-107.72-12.54-2.98z"/><path class="a" d="M418.28 17.39l12.54 17.43V0l-12.54 17.39z"/><path class="d" d="M379.28 167.71l17.36-58.25 8.74-53.7-12.63-2.99-17.11 114.26 3.64.68z"/><path fill="#e16d5e" d="M405.38 55.76l-26.1 111.95 4.25.8 34.75-109.7-12.9-3.05z"/><path class="d" d="M403.73 191.12c-24.31 2.4-38.07 12.27-33.31 4s11-17.45 11-17.45l-2-1.71-3 1.71-18.29 21.71s-7.86 9.35 4 12.28c9.86 2.42 30-7.35 34.18-2.51 2.9 3.36-3 9.6-12 14.73-11.27 6.47-17.81 8.32-27.9 17.33S347.2 256 350.27 256c3.28 0 5.63-4.71 9.87-8.51s6.27-4 6.27-4-2.51 4 .5 5.26 15.78-7 15.78-7-4 7 2.25 6.77 29.89-21.38 36.82-32.81c5.86-9.71 4.76-26.85-18.03-24.59zm-39.3 11.95a3 3 0 0 0-2.62.31 3 3 0 0 0 1.14-2.63 8.92 8.92 0 0 0-1.07-2.76 12.51 12.51 0 0 0 2.16 2 2.5 2.5 0 0 0 2.73 0s-1.36 1-1.25 2.19a9.91 9.91 0 0 0 1.33 3.24 10.18 10.18 0 0 0-2.42-2.35zm3.86-13.93A1.85 1.85 0 0 0 370 189a5.58 5.58 0 0 0 1.16-1.38 7.62 7.62 0 0 0-.45 1.75 1.5 1.5 0 0 0 .78 1.46 1.8 1.8 0 0 0-1.53 0 6 6 0 0 0-1.35 1.65 6.13 6.13 0 0 0 .58-2c.03-.82-.9-1.34-.9-1.34zM391 202.26c-1.63.46-2.18 2.67-2.18 2.67a3.92 3.92 0 0 0-1.32-3.49 11.39 11.39 0 0 0-3.49-1.62 16 16 0 0 0 3.85 0 3.23 3.23 0 0 0 2.58-2.45s-.37 2.15.83 3.18a12.79 12.79 0 0 0 4.17 1.83 13.29 13.29 0 0 0-4.44-.12zm-13.4 35.36a2.64 2.64 0 0 0-2.24-.5 8.92 8.92 0 0 0-2.48 2 9.4 9.4 0 0 0 1.46-2.76 2.76 2.76 0 0 0-1-2.21 2.75 2.75 0 0 0 2.6.29 8.06 8.06 0 0 0 2.13-1.66 11.36 11.36 0 0 0-1.2 2.42 2.27 2.27 0 0 0 .73 2.42zm20.65-4.82s-2-1.52-3.69-.83a14.77 14.77 0 0 0-4.07 3.33 15.52 15.52 0 0 0 2.4-4.53c.39-1.91-1.59-3.63-1.59-3.63s2.18 1.54 4.28.48a13.29 13.29 0 0 0 3.5-2.74 18.56 18.56 0 0 0-2 4 3.74 3.74 0 0 0 1.17 3.92zm8.39-18.06a2.26 2.26 0 0 0-1.89-.37 7.57 7.57 0 0 0-2 1.74 8 8 0 0 0 1.17-2.33A2.3 2.3 0 0 0 403 212a2.29 2.29 0 0 0 2.18.19 6.68 6.68 0 0 0 1.82-1.49 9.23 9.23 0 0 0-.95 2.05 1.9 1.9 0 0 0 .59 1.99zm9.14-6.61a11.42 11.42 0 0 0-.87 3.93 12 12 0 0 0-.7-3.86c-.68-1.32-2.68-1.42-2.68-1.42a3.46 3.46 0 0 0 2.79-1.74 10 10 0 0 0 .8-3.31 14.22 14.22 0 0 0 .71 3.33 2.86 2.86 0 0 0 2.56 1.82s-1.93.04-2.61 1.25zM358 261c-5.35 4.34-4.68 7.85-2.17 9s7-3 8.18-4.34 3.51-3.68 2.67-5.85-3.35-3.15-8.68 1.19zm14.87-9.67c-2.86 1.91-2.69 3.69-1.5 4.39s3.63-1.18 4.28-1.79 1.91-1.67 1.59-2.79-1.52-1.73-4.38.19zm-158.7-92.15c0-5.74-.66-11.5-.6-17.23.12-12.16-.72-24.3-1.07-36.41-.34-11.84-.63-23.8-1.4-35.59-.2-3 .58-7-.43-9.76s-3.5-1.84-6.16-1.94c-2.91-.11-5.86-.17-8.83-.12-1.52 0-3-.06-4.57-.05-2.21 0-2.07 0-3.16 1.75-6.16 9.91-8.88 21.75-14.21 32.07-4.86 9.43-7.75 20-11.74 29.95-4.11 10.26-8.49 20.37-12.46 30.7-1 2.69-2.51 5.23-3.6 7.9s-2.88 5.86-3.8 8.7c-1.17 3.62.35 3.9 3.51 4 3.56.08 7.38-.33 10.91.3 2.34.16 7.26 1 9.14-.33s2.92-6.25 3.91-8.37c1.15-2.47 1.72-5.34 3.26-7.61 1.42-2.1 1.18-1.83 4-1.81 1.48 0 3 0 4.45.07 2.06 0 8.06-.58 9.77.56s.8 6.76.77 8.94c0 1.73-.78 6.72.49 8.06s5.95.43 7.79.37c3-.11 6.12-.05 9.15 0 1.55 0 4.31.66 5.18-.76.51-.82 0-4.13 0-5.08-.14-2.83-.32-5.57-.31-8.31zM202 68a10 10 0 0 0 1.22-3.14 14.24 14.24 0 0 0 .26 3.36 2.84 2.84 0 0 0 2.28 2.12s-1.9-.22-2.73.89a11.34 11.34 0 0 0-1.38 3.77 11.58 11.58 0 0 0-.18-3.88c-.47-1.43-2.47-1.79-2.47-1.79a3.43 3.43 0 0 0 3-1.33zm-22.21 39.08c-1.94 2.58-2.9 7.92-2.9 7.92s.6-5.39-.39-8.21-5.18-3.71-5.18-3.71 4.28.34 6.29-2.84a21.17 21.17 0 0 0 2.58-6.65 29.89 29.89 0 0 0 .54 7.11 6 6 0 0 0 4.82 4.49s-4.02-.46-5.77 1.88zm11.37 26.81c-2.16 0-4.28 0-6.42-.17a14.17 14.17 0 0 1-3.14-.16c-1.48-.94-.67-.89-.65-2.15.06-3.8 2.6-7.91 3.5-11.59a94.39 94.39 0 0 1 4.07-11.3c.84-2.17 1.74-9.6 4.29-9.89.26 6.11.09 12.32-.06 18.43-.09 3.16.92 15.23-1.6 16.82zm13.33 17c-1.8 3.36-2 9.76-2 9.76s-.27-6.4-1.92-9.52-6.69-3.4-6.69-3.4 5-.36 6.83-4.43a25.11 25.11 0 0 0 1.83-8.21 35.52 35.52 0 0 0 1.89 8.2c1.66 4.39 6.42 4.38 6.42 4.38s-4.74.2-6.37 3.24zm-73.18.16q-2.34-9.76-4.78-19.5a84.5 84.5 0 0 1-1.11-5.22c-.22-1.21-1.4-3-1.32-4.17.15-2.1 1.8-1.86 3.71-3a19.81 19.81 0 0 0 4.54-3.59 45.4 45.4 0 0 0 10.21-18c2.17-6.93 2.19-14.57 1.53-21.7-.76-8.2-5.46-12.36-12.68-15.37-5.79-2.41-14.57-2.84-20.82-2.48-4.07.24-8.27 0-12.35-.09-2.88 0-8.34-1.22-9.89 2-1.36 2.81-1.16 7.7-1.68 11-.55 3.5-1.23 6.8-1.62 10.31-.72 6.68-2.57 13.18-3.37 19.85-1.67 13.8-5 26.61-6.84 40.29-.87 6.6-1.69 13.2-2.88 19.85-.46 2.53-2 7.59-1.41 10.08.71 2.82 6.42 2.1 9.07 2 3.59.1 7.66.53 11.2-.33 1.93-.46.82.61 2-.93a5.43 5.43 0 0 0 .66-2A37.63 37.63 0 0 0 94 165a102.64 102.64 0 0 1 1.21-10.21c1.11-6.78 2.8-13.68 3.21-20.47.08-1.36.58-8.72 1.94-9 2.53-.49 3.63 6.87 4 8.51a186.13 186.13 0 0 0 4.76 20c.93 3 1.45 6 2.37 9 .81 2.6 1.21 8.16 3.63 9.89 2.06 1.47 6.94.4 9.5.17 2.08-.18 4.14-.63 6.22-.8 1.15-.1 3.4.29 4.41-.41 2-1.34-.1-7.34-.67-9.75-.95-3.59-2.4-7.17-3.28-10.86zm-.4-72a19.62 19.62 0 0 0 2.35-6 26.66 26.66 0 0 0 .49 6.47 5.47 5.47 0 0 0 4.39 4.08s-3.66-.41-5.25 1.72c-1.76 2.35-2.64 7.22-2.64 7.22s.54-4.91-.36-7.48-4.71-3.38-4.71-3.38 3.88.23 5.72-2.68zm-35.4 39.3c-2.33 3.11-3.49 9.54-3.49 9.54s.71-6.5-.48-9.9-6.23-4.46-6.23-4.46 5.15.41 7.58-3.42a25.86 25.86 0 0 0 3.1-8 36 36 0 0 0 .66 8.56c1 4.69 5.8 5.41 5.8 5.41s-4.83-.55-6.94 2.27zm4.7-48.92c-1.28 1.71-1.92 5.26-1.92 5.26s.4-3.58-.26-5.46-3.44-2.46-3.44-2.46 2.84.23 4.18-1.89a14.19 14.19 0 0 0 1.71-4.42 20.26 20.26 0 0 0 .36 4.73 4 4 0 0 0 3.21 3s-2.67-.32-3.84 1.24zm9.38 36.27a44.84 44.84 0 0 1-5.43-.33c1.28-5.84 1.6-12.29 2.47-18.29.42-2.87-.12-6.23 1.28-8.87 1-2 1.5-1.74 3.83-1.75a17.71 17.71 0 0 1 5 .49c5.74 1.78 5.44 10.47 4.07 15.24-1.62 5.58-4.31 12.66-11.22 13.51zm13.89 46.06c-1.29 1.71-1.92 5.26-1.92 5.26s.39-3.58-.27-5.46-3.44-2.46-3.44-2.46 2.84.23 4.18-1.89a14.35 14.35 0 0 0 1.72-4.41 19.58 19.58 0 0 0 .36 4.72 4 4 0 0 0 3.2 3s-2.67-.32-3.83 1.24zm162-93.7c-8.5-.44-17 0-25.55-.3-4.31-.14-9-.54-13.31.12-4.54.7-3 4.94-3.84 8.6-1.58 7-2.74 14.21-4.18 21.26-.71 3.5-.66 7.08-1.4 10.63-.79 3.82-1.62 7.56-2.5 11.41-1.7 7.45-1.42 15.5-3.35 22.78-1.78 6.75-2 13.76-3.89 20.46a94.39 94.39 0 0 0-2.24 11c-.38 2.41-2.27 9.67 1.85 9.27a72.33 72.33 0 0 0 14.34 0c2.41-.18 4.88.27 6.14-2 1.12-2 1-4.94 1.19-7.12.32-3.75 1.65-7.27 2.06-11.12s1.44-7.56 2-11.54c.58-3.75 1.48-7.49 2.19-11.31s1-2.51 4.49-2.52c2.09 0 4.16-.33 6.26-.33 1.41 0 5.2.74 6.49.16s1.71-3.12 2-4.62c.76-3.68 1.25-7.51 2-11.23.34-1.69 1.65-4.69 1.09-6.37-.68-2-2.63-1.55-4.66-1.49-4.4.13-8.77.52-13.17 0 1.42-4 1.93-9 2.59-13.21.31-2 .72-3.93 1-5.9a13 13 0 0 1 .32-3c.91-1.88.15-.78 2.08-1.33 3.64-1 9.76-.47 13.57-.12 1.74.15 5.34.8 6.93.13 2.15-.92 1.77-2.87 2.12-5 .59-3.5 1.34-7 1.72-10.54.16-1.51 1.11-4.46.24-5.75s-3.21-.95-4.58-1.02zM241 148.17c-1.28 1.71-1.92 5.26-1.92 5.26s.39-3.58-.26-5.46-3.44-2.46-3.44-2.46 2.84.23 4.18-1.89a14.19 14.19 0 0 0 1.71-4.42 19.65 19.65 0 0 0 .36 4.73 4 4 0 0 0 3.21 3s-2.63-.32-3.84 1.24zm11.18-55.76c-1.94 2.58-2.9 7.92-2.9 7.92s.6-5.39-.39-8.21-5.18-3.71-5.18-3.71 4.28.34 6.29-2.84a21.26 21.26 0 0 0 2.58-6.65 29.89 29.89 0 0 0 .54 7.11 6 6 0 0 0 4.88 4.49s-4-.45-5.78 1.89zm30.56-21.19a11.23 11.23 0 0 0-1.32 3.78 11.68 11.68 0 0 0-.19-3.88c-.49-1.39-2.44-1.75-2.44-1.75a3.43 3.43 0 0 0 3-1.34 10.26 10.26 0 0 0 1.21-3.18 13.92 13.92 0 0 0 .25 3.36 2.84 2.84 0 0 0 2.28 2.12s-1.92-.22-2.75.89zM45.91 56c-7.33-.92-16.66-.21-23 4-6.5 4.37-9.19 12.35-11.3 19.47-2.17 7.53-4.53 14.8-5.82 22.44C3.4 116.17.14 130.51 0 145.28c0 7.72-.4 16.05 5.46 22 5.46 5.55 13.46 7.84 21.09 7.79 2.95.65 7.47-.3 10.4-.91 4.19-.88 8.28-1.44 11.77-4.09 3.29-2.51 5.53-6.1 7.37-9.71 3.3-6.49 4.6-14.29 5.89-21.38.49-2.71 2.13-8.6-1-10.21-1.67-.87-5.75-.4-7.49-.5-1.93-.12-3.83-.13-5.76-.16-1.46 0-4.54-.8-5.86 0s-1.87 3.55-2.25 4.94c-1 3.57-1.35 7.32-2.43 10.87-1.25 4.12-2.43 7.27-6.87 7.92-4.95.72-7.61-.68-8-5.77-.52-7.25 1.26-15.34 2.14-22.47 1-8.17 3.17-16.47 5.07-24.45.85-3.56 1.62-7.26 2.61-10.75.87-3.06 1.86-8.76 4.6-10.71s8.45-1.2 10.07 1.7c1.91 3.43 0 8.69-.77 12.2-.54 2.52-2.88 8.74-.33 10.67s10.07.9 12.84.93a21.75 21.75 0 0 0 5.23-.17c2.69-.65 2.28-1.75 2.84-4.52.82-4 1.27-8.1 1.92-12.16 1.15-7.17 1.32-16.06-2.59-22.43C62 57.37 52.86 56.9 45.91 56zM15 105.79a11.2 11.2 0 0 0-1.37 3.75 11.68 11.68 0 0 0-.19-3.88c-.49-1.4-2.44-1.75-2.44-1.75a3.42 3.42 0 0 0 3-1.35 10.26 10.26 0 0 0 1.22-3.14 13.92 13.92 0 0 0 .25 3.36 2.84 2.84 0 0 0 2.28 2.12s-1.89-.21-2.75.89zm27.4 41.69a26.62 26.62 0 0 0 3.21-8.28 37 37 0 0 0 .67 8.86c1 4.85 6 5.59 6 5.59s-5-.56-7.19 2.35c-2.4 3.22-3.6 9.87-3.6 9.87s.74-6.72-.49-10.23C39.72 152 34.56 151 34.56 151s5.33.45 7.84-3.52zM61.61 81.7c-1.93 2.59-2.89 7.93-2.89 7.93s.59-5.4-.4-8.22-5.17-3.71-5.17-3.71 4.27.35 6.29-2.84A21.46 21.46 0 0 0 62 68.21a29.39 29.39 0 0 0 .54 7.12c.82 3.89 4.82 4.48 4.82 4.48s-4-.45-5.75 1.89zm297.58-4.64c.44-1.89.82-3.73 1.18-5.63.57-3 2.69-8.86 1.81-11.86-.95-3.22-9.84-1.76-12.54-1.82-3.62-.07-7.23-.13-10.86-.13-9.39 0-18.79.16-28.17.13-4.43 0-7.75-1-8.74 4.32-.72 3.87-1.54 7.94-2.14 11.83-.23 1.48-1.54 4.83-.33 6.1 1 1 4.21.64 5.55.66 4.22.06 8.5 0 12.74 0a143.75 143.75 0 0 1-3.29 20.43c-2.53 11.82-5.11 23.7-7.2 35.63-1.13 6.49-2.47 12.87-3.38 19.27-.47 3.37-1.36 6.44-2 9.76-.43 2.16-1.6 8.05 2.06 7.51 1.55.83 4.46 0 6.3 0 3.47 0 7.26.45 10.7 0 4.54-.61 4-7 4.86-10.79 1.92-8.74 3.12-17.89 5.05-26.61 3.39-15.31 6.18-30.89 9.35-46 .38-1.8.67-3.67 1-5.45.37-2.18 0-3.39 2.14-4 3.39-.9 8.78.07 12.41.05 3.17.05 2.82-.46 3.5-3.4zm-38.6 75.63c-1.93 2.58-2.89 7.92-2.89 7.92s.59-5.39-.4-8.21-5.17-3.71-5.17-3.71 4.27.34 6.29-2.84a21.46 21.46 0 0 0 2.58-6.65 29.3 29.3 0 0 0 .54 7.11 6 6 0 0 0 4.82 4.49s-4.02-.45-5.77 1.89zm4.28-49.36c-1.29 1.71-1.93 5.26-1.93 5.26s.4-3.58-.26-5.46-3.44-2.46-3.44-2.46 2.84.23 4.18-1.89a14.35 14.35 0 0 0 1.72-4.41 19.58 19.58 0 0 0 .36 4.72 4 4 0 0 0 3.2 3s-2.7-.32-3.83 1.24zm1.38-23.74c-2.58 3.44-3.86 10.56-3.86 10.56s.79-7.19-.53-11c-1.38-3.93-6.9-4.94-6.9-4.94s5.7.45 8.39-3.79a28.54 28.54 0 0 0 3.44-8.86 39.46 39.46 0 0 0 .72 9.48c1.1 5.19 6.43 6 6.43 6s-5.36-.57-7.69 2.55zm26.13-12.75a11.34 11.34 0 0 0-1.38 3.74 11.87 11.87 0 0 0-.18-3.88c-.49-1.39-2.45-1.75-2.45-1.75a3.43 3.43 0 0 0 3-1.34 10 10 0 0 0 1.22-3.15 14.22 14.22 0 0 0 .26 3.36 2.84 2.84 0 0 0 2.28 2.12s-1.92-.21-2.75.9z"/></svg>
