<svg xmlns="http://www.w3.org/2000/svg" viewBox="0 0 430.82 270.22"><defs><style>.a{fill:#6a4974}.d{fill:#a74a9b}</style></defs><path class="a" d="M393.08 158l23.21 23.55s2 2.5 3.78.61c1.59-1.69.74-4.41.74-4.41l-11.7-60.16-9.73 17.17zM384.6 107.19l-35.53 49.17s-1.31 1.39-.68 2.69a3 3 0 0 0 3.43 1.42l25.27-3.16 5.3-25.94z"/><path fill="#be9ec7" d="M374.04 177.67l18.71-124.9 25.53-35.38 7.02 5.46 5.52 11.97v26.97l-45.06 115.77-11.72.11z"/><path class="a" d="M375.64 167.03l6.26-.8 6.99 3.28-3.13 8.05-11.72.11 1.6-10.64z"/><path fill="#c964a8" d="M418.28 58.81l-18.77 46.92-15.98 62.78 5.36 1 41.93-107.72-12.54-2.98z"/><path class="a" d="M418.28 17.39l12.54 17.43V0l-12.54 17.39z"/><path class="d" d="M379.28 167.71l17.36-58.25 8.74-53.7-12.63-2.99-17.11 114.26 3.64.68z"/><path fill="#e16d5e" d="M405.38 55.76l-26.1 111.95 4.25.8 34.75-109.7-12.9-3.05z"/><path class="d" d="M403.73 191.12c-24.31 2.4-38.07 12.27-33.31 4s11-17.45 11-17.45l-2-1.71-3 1.71-18.29 21.71s-7.86 9.35 4 12.28c9.86 2.42 30-7.35 34.18-2.51 2.9 3.36-3 9.6-12 14.73-11.27 6.47-17.81 8.32-27.9 17.33S347.2 256 350.27 256c3.28 0 5.63-4.71 9.87-8.51s6.27-4 6.27-4-2.51 4 .5 5.26 15.78-7 15.78-7-4 7 2.25 6.77 29.89-21.38 36.82-32.81c5.86-9.71 4.76-26.85-18.03-24.59zm-39.3 11.95a3 3 0 0 0-2.62.31 3 3 0 0 0 1.14-2.63 8.92 8.92 0 0 0-1.07-2.76 12.51 12.51 0 0 0 2.16 2 2.5 2.5 0 0 0 2.73 0s-1.36 1-1.25 2.19a9.91 9.91 0 0 0 1.33 3.24 10.18 10.18 0 0 0-2.42-2.35zm3.86-13.93A1.85 1.85 0 0 0 370 189a5.58 5.58 0 0 0 1.16-1.38 7.62 7.62 0 0 0-.45 1.75 1.5 1.5 0 0 0 .78 1.46 1.8 1.8 0 0 0-1.53 0 6 6 0 0 0-1.35 1.65 6.13 6.13 0 0 0 .58-2c.03-.82-.9-1.34-.9-1.34zM391 202.26c-1.63.46-2.18 2.67-2.18 2.67a3.92 3.92 0 0 0-1.32-3.49 11.39 11.39 0 0 0-3.49-1.62 16 16 0 0 0 3.85 0 3.23 3.23 0 0 0 2.58-2.45s-.37 2.15.83 3.18a12.79 12.79 0 0 0 4.17 1.83 13.29 13.29 0 0 0-4.44-.12zm-13.4 35.36a2.64 2.64 0 0 0-2.24-.5 8.92 8.92 0 0 0-2.48 2 9.4 9.4 0 0 0 1.46-2.76 2.76 2.76 0 0 0-1-2.21 2.75 2.75 0 0 0 2.6.29 8.06 8.06 0 0 0 2.13-1.66 11.36 11.36 0 0 0-1.2 2.42 2.27 2.27 0 0 0 .73 2.42zm20.65-4.82s-2-1.52-3.69-.83a14.77 14.77 0 0 0-4.07 3.33 15.52 15.52 0 0 0 2.4-4.53c.39-1.91-1.59-3.63-1.59-3.63s2.18 1.54 4.28.48a13.29 13.29 0 0 0 3.5-2.74 18.56 18.56 0 0 0-2 4 3.74 3.74 0 0 0 1.17 3.92zm8.39-18.06a2.26 2.26 0 0 0-1.89-.37 7.57 7.57 0 0 0-2 1.74 8 8 0 0 0 1.17-2.33A2.3 2.3 0 0 0 403 212a2.29 2.29 0 0 0 2.18.19 6.68 6.68 0 0 0 1.82-1.49 9.23 9.23 0 0 0-.95 2.05 1.9 1.9 0 0 0 .59 1.99zm9.14-6.61a11.42 11.42 0 0 0-.87 3.93 12 12 0 0 0-.7-3.86c-.68-1.32-2.68-1.42-2.68-1.42a3.46 3.46 0 0 0 2.79-1.74 10 10 0 0 0 .8-3.31 14.22 14.22 0 0 0 .71 3.33 2.86 2.86 0 0 0 2.56 1.82s-1.93.04-2.61 1.25zM358 261c-5.35 4.34-4.68 7.85-2.17 9s7-3 8.18-4.34 3.51-3.68 2.67-5.85-3.35-3.15-8.68 1.19zm14.87-9.67c-2.86 1.91-2.69 3.69-1.5 4.39s3.63-1.18 4.28-1.79 1.91-1.67 1.59-2.79-1.52-1.73-4.38.19z"/></svg>
