<svg xmlns="http://www.w3.org/2000/svg" viewBox="0 0 144 144"><defs><style>.a{fill:#6a4974}.b{fill:#a74a9b}</style></defs><path class="a" d="M64.24 85.9l6.25 23s.37 2.28 2.16 1.72a3.56 3.56 0 0 0 2-2.51l14-41.94-12.21 7.36z"/><path class="b" d="M59.2 110.5c-16.13-7.1-28.28-5.77-22.36-9.28S50 94.16 50 94.16l-.63-1.77H46.8l-19.18 7.16s-8.25 3.09-1.83 9.13c5.34 5 21.46 6 22.37 10.54.63 3.13-5.31 5-12.74 5-9.38.08-14.14-1.08-23.67 1s-11 6-9.12 7.1 5.21-1 9.22-1.86 5.35-.3 5.35-.3-3 1.63-1.55 3.49 12.4 1.18 12.4 1.18-5 3-1 5.05 26.35-2.85 34.76-7.58c7.13-3.99 12.51-15.14-2.61-21.8zM37.75 97.86a1.31 1.31 0 0 0-.12-1.15 1.3 1.3 0 0 0 1.15.51 3.74 3.74 0 0 0 1.22-.45 5.71 5.71 0 0 0-.9.94 1.08 1.08 0 0 0 0 1.19s-.42-.6-1-.55a4.34 4.34 0 0 0-1.43.56 4.57 4.57 0 0 0 1.08-1.05zm-6.5 6.1a7.25 7.25 0 0 0-.32 2.51 7.26 7.26 0 0 0-.66-2.37 2.19 2.19 0 0 0-1.76-.74 2.17 2.17 0 0 0 1.65-1.25 6.3 6.3 0 0 0 .31-2.11 9 9 0 0 0 .63 2 1.81 1.81 0 0 0 1.71 1s-1.21.16-1.56 1zm-4.53 24.76a1.64 1.64 0 0 0-.41 1.75s-.44-1-1.23-1.11a6.48 6.48 0 0 0-2.28.39 6.81 6.81 0 0 0 1.9-1.21 2 2 0 0 0 .17-1.73 2 2 0 0 0 1.53 1.1 5.67 5.67 0 0 0 1.93-.29 8.34 8.34 0 0 0-1.61 1.1zm14.94 3.15a2.72 2.72 0 0 0-.67 2.89s-.72-1.67-2-1.83a10.82 10.82 0 0 0-3.74.65 11.2 11.2 0 0 0 3.11-2c.92-1.06.29-2.84.29-2.84a3.25 3.25 0 0 0 2.52 1.81 9.67 9.67 0 0 0 3.17-.48 13.31 13.31 0 0 0-2.68 1.8zM47.27 113a2.82 2.82 0 0 0-2.31.91 2.84 2.84 0 0 0 .41-2.66 8.35 8.35 0 0 0-1.62-2.25 11.47 11.47 0 0 0 2.43 1.33 2.33 2.33 0 0 0 2.49-.62 2.77 2.77 0 0 0-.6 2.29 9.24 9.24 0 0 0 2 2.63 9.64 9.64 0 0 0-2.8-1.63zM53 124.91a1.37 1.37 0 0 0-.3 1.47s-.39-.84-1.06-.9a5.52 5.52 0 0 0-1.89.37 5.55 5.55 0 0 0 1.56-1 1.63 1.63 0 0 0 .11-1.45 1.67 1.67 0 0 0 1.31.89 4.82 4.82 0 0 0 1.6-.28 6.82 6.82 0 0 0-1.33.9zm7.78.56a8.15 8.15 0 0 0-1.93 2.15 8.38 8.38 0 0 0 .92-2.67c.05-1.07-1.18-1.84-1.18-1.84a2.5 2.5 0 0 0 2.37-.11 7.24 7.24 0 0 0 1.67-1.79 10.18 10.18 0 0 0-.73 2.34 2.07 2.07 0 0 0 1 2 2.42 2.42 0 0 0-2.16-.08zm-55 12.75c-4.89.83-5.72 3.28-4.56 4.9s5.48.59 6.68.17 3.51-1.07 3.75-2.73-1.05-3.18-5.95-2.34zm12.77-.81c-2.47.19-3 1.37-2.49 2.23s2.7.54 3.32.39 1.79-.37 2-1.19-.38-1.62-2.91-1.43z"/><path class="a" d="M76.9 51L37.16 69.3s-1.32.41-1.38 1.46a2.14 2.14 0 0 0 1.65 2.1l17 7L67 65.4z"/><path fill="#be9ec7" d="M45.3 91.54l55.99-71.86 28.57-13.2 2.48 5.92-.77 9.48-9.55 16.95-69.31 56.79-7.41-4.08z"/><path class="a" d="M50.08 85.42l4.21 1.71 3.23 4.54-4.81 3.95-7.41-4.08 4.78-6.12z"/><path fill="#c964a8" d="M115.19 32.52l-28.4 22.83-32.28 33.79 3.01 2.53 64.5-52.84-6.83-6.31z"/><path class="a" d="M129.86 6.48l1.71 15.4L143.91 0l-14.05 6.48z"/><path class="b" d="M52.12 87.13l31.54-30.45 24.51-30.65-6.88-6.35-51.21 65.74 2.04 1.71z"/><path fill="#e16d5e" d="M108.17 26.03l-56.05 61.1 2.39 2.01 60.68-56.62-7.02-6.49z"/></svg>